HIERARCHY
ROOT Hips
{
  OFFSET -4.35178 90.3298 111.633
  CHANNELS 6 Xposition Yposition Zposition Zrotation Xrotation Yrotation
  JOINT LeftUpLeg
  {
    OFFSET 0.103456 1.85784 10.5485
    CHANNELS 6 Xposition Yposition Zposition Zrotation Xrotation Yrotation
    JOINT LeftLeg
    {
      OFFSET 43.5 -4.2e-05 0
      CHANNELS 6 Xposition Yposition Zposition Zrotation Xrotation Yrotation
      JOINT LeftFoot
      {
        OFFSET 42.3722 1.9e-05 0
        CHANNELS 6 Xposition Yposition Zposition Zrotation Xrotation Yrotation
        JOINT LeftToe
        {
          OFFSET 17.3 0 0
          CHANNELS 6 Xposition Yposition Zposition Zrotation Xrotation Yrotation
          End Site
          {
            OFFSET 0 0 0
          }
        }
      }
    }
  }
  JOINT RightUpLeg
  {
    OFFSET 0.103456 1.85782 -10.5485
    CHANNELS 6 Xposition Yposition Zposition Zrotation Xrotation Yrotation
    JOINT RightLeg
    {
      OFFSET 43.5 -2.7e-05 0
      CHANNELS 6 Xposition Yposition Zposition Zrotation Xrotation Yrotation
      JOINT RightFoot
      {
        OFFSET 42.3723 0 0
        CHANNELS 6 Xposition Yposition Zposition Zrotation Xrotation Yrotation
        JOINT RightToe
        {
          OFFSET 17.3 0 1.7e-05
          CHANNELS 6 Xposition Yposition Zposition Zrotation Xrotation Yrotation
          End Site
          {
            OFFSET 0 0 0
          }
        }
      }
    }
  }
  JOINT Spine
  {
    OFFSET 6.90197 -2.60373 0
    CHANNELS 6 Xposition Yposition Zposition Zrotation Xrotation Yrotation
    JOINT Spine1
    {
      OFFSET 12.5881 0 0
      CHANNELS 6 Xposition Yposition Zposition Zrotation Xrotation Yrotation
      JOINT Spine2
      {
        OFFSET 12.3432 -1.8e-05 0
        CHANNELS 6 Xposition Yposition Zposition Zrotation Xrotation Yrotation
        JOINT Neck
        {
          OFFSET 25.8329 2.3e-05 0
          CHANNELS 6 Xposition Yposition Zposition Zrotation Xrotation Yrotation
          JOINT Head
          {
            OFFSET 11.7666 0 0
            CHANNELS 6 Xposition Yposition Zposition Zrotation Xrotation Yrotation
            End Site
            {
              OFFSET 0 0 0
            }
          }
        }
        JOINT LeftShoulder
        {
          OFFSET 19.7459 -1.48035 6.0001
          CHANNELS 6 Xposition Yposition Zposition Zrotation Xrotation Yrotation
          JOINT LeftArm
          {
            OFFSET 11.2841 1.8e-05 -2e-05
            CHANNELS 6 Xposition Yposition Zposition Zrotation Xrotation Yrotation
            JOINT LeftForeArm
            {
              OFFSET 33 -1.3e-05 1.9e-05
              CHANNELS 6 Xposition Yposition Zposition Zrotation Xrotation Yrotation
              JOINT LeftHand
              {
                OFFSET 25.2 3.2e-05 1.1e-05
                CHANNELS 6 Xposition Yposition Zposition Zrotation Xrotation Yrotation
                End Site
                {
                  OFFSET 0 0 0
                }
              }
            }
          }
        }
        JOINT RightShoulder
        {
          OFFSET 19.7461 -1.48036 -6.00008
          CHANNELS 6 Xposition Yposition Zposition Zrotation Xrotation Yrotation
          JOINT RightArm
          {
            OFFSET 11.2841 0 0
            CHANNELS 6 Xposition Yposition Zposition Zrotation Xrotation Yrotation
            JOINT RightForeArm
            {
              OFFSET 33.0001 1.6e-05 0
              CHANNELS 6 Xposition Yposition Zposition Zrotation Xrotation Yrotation
              JOINT RightHand
              {
                OFFSET 25.1998 0.000123 0.000432
                CHANNELS 6 Xposition Yposition Zposition Zrotation Xrotation Yrotation
                End Site
                {
                  OFFSET 0 0 0
                }
              }
            }
          }
        }
      }
    }
  }
}
MOTION
Frames:	9
Frame Time:	0.0333333
88.56 89.8136 -90.4869 -13.1039 -83.5574 -101.538 0.103456 1.85784 10.5485 11.2569 4.61046 -178.051 43.5 -4.2e-05 1e-05 -8.35057 -8.4386 -2.56655 42.3722 1.9e-05 -1.42109e-14 78.8608 -9.21437 4.55888 17.3 0 3e-06 21.4546 -1e-06 0.003093 0.103456 1.85782 -10.5485 7.32125 -15.5764 174.312 43.5 -2.7e-05 4e-06 -12.9983 11.3381 3.51124 42.3723 0 1e-05 83.1213 7.14145 -2.67916 17.3 -6e-06 1.7e-05 21.4546 -1.9e-05 -0.003116 6.90197 -2.60373 -3e-06 7.27763 -0.825636 -0.540897 12.5881 1e-05 8e-06 4.55618 -1.6642 -0.938281 12.3432 -1.8e-05 -5e-06 4.26691 -1.65258 -0.826294 25.8329 2.3e-05 7e-06 3.24655 -1.75047 -8.54054 11.7666 -8e-06 -6e-06 -31.2814 -5.73681 10.9187 19.7459 -1.48035 6.0001 -177.211 3.87834 -92.1842 11.2841 1.8e-05 -2e-05 28.2581 -18.411 18.7779 33 -1.3e-05 1.9e-05 -32.9721 -3.30314 -17.6152 25.2 3.2e-05 1.1e-05 15.5506 28.2495 -7.10656 19.7461 -1.48036 -6.00008 -179.077 5.305 91.3559 11.2841 0 -1e-06 -6.59403 6.976 -14.9359 33.0001 1.6e-05 -1e-06 -18.6832 -1.27491 14.2574 25.1998 0.000123 0.000432 8.21935 -13.5607 2.48427 
88.5583 89.8165 -90.4879 -13.1827 -83.588 -101.609 0.103456 1.85784 10.5485 11.2072 4.60411 -178.05 43.5 -4.2e-05 1e-05 -8.3885 -8.42503 -2.56646 42.3722 1.9e-05 0 78.8744 -9.24696 4.55517 17.3 -3.55271e-15 3e-06 21.4546 -1e-06 0.003093 0.103456 1.85782 -10.5485 7.24353 -15.5451 174.292 43.5 -2.7e-05 4e-06 -13.0596 11.3575 3.51148 42.3723 0 1e-05 83.17 7.12643 -2.7132 17.3 -6e-06 1.7e-05 21.4546 -1.9e-05 -0.003116 6.90197 -2.60373 -3e-06 7.29492 -0.812983 -0.540896 12.5881 1e-05 8e-06 4.59052 -1.63875 -0.940603 12.3432 -1.8e-05 -5e-06 4.30096 -1.6268 -0.826283 25.8329 2.3e-05 7e-06 3.28403 -1.62532 -8.63018 11.7666 -8e-06 -6e-06 -31.2306 -5.52673 10.9393 19.7459 -1.48035 6.0001 -177.244 3.91383 -92.2186 11.2841 1.8e-05 -2e-05 28.3029 -18.4826 18.786 33 -1.3e-05 1.9e-05 -32.9194 -3.33391 -17.6499 25.2 3.2e-05 1.1e-05 15.5602 28.2268 -7.10504 19.7461 -1.48036 -6.00008 -179.129 5.36881 91.3465 11.2841 0 -1e-06 -6.61553 6.96065 -14.9188 33.0001 1.6e-05 -1e-06 -18.6459 -1.35497 14.2424 25.1998 0.000123 0.000432 8.14654 -13.6033 2.50576 
88.5568 89.8178 -90.4887 -12.9467 -83.6205 -101.351 0.103456 1.85784 10.5485 11.1682 4.62761 -178.068 43.5 -4.2e-05 1e-05 -8.39214 -8.41359 -2.56638 42.3722 1.9e-05 1.42109e-14 78.8898 -9.24408 4.53105 17.3 0 3e-06 21.4546 -1e-06 0.003093 0.103456 1.85782 -10.5485 7.18736 -15.5169 174.274 43.5 -2.7e-05 4e-06 -13.1121 11.3911 3.51189 42.3723 0 1e-05 83.1983 7.12078 -2.77772 17.3 -6e-06 1.7e-05 21.4546 -1.9e-05 -0.003116 6.90197 -2.60373 -3e-06 7.31215 -0.820358 -0.535641 12.5881 1e-05 8e-06 4.62518 -1.65246 -0.928773 12.3432 -1.8e-05 -5e-06 4.3358 -1.63923 -0.81357 25.8329 2.3e-05 7e-06 3.29399 -1.62518 -8.65711 11.7666 -8e-06 -6e-06 -31.2236 -5.47624 10.9073 19.7459 -1.48035 6.0001 -177.258 3.91694 -92.2279 11.2841 1.8e-05 -2e-05 28.3548 -18.5084 18.7875 33 -1.3e-05 1.9e-05 -32.8682 -3.40049 -17.6459 25.2 3.2e-05 1.1e-05 15.5791 28.1898 -7.11305 19.7461 -1.48036 -6.00008 -179.168 5.38798 91.344 11.2841 0 -1e-06 -6.66746 6.94188 -14.873 33.0001 1.6e-05 -1e-06 -18.6648 -1.39404 14.244 25.1998 0.000123 0.000432 8.185 -13.6372 2.50547 
88.5561 89.8182 -90.4902 -12.4623 -83.6647 -100.846 0.103456 1.85784 10.5485 11.1324 4.64806 -178.079 43.5 -4.2e-05 1e-05 -8.36605 -8.393 -2.56625 42.3722 1.9e-05 0 78.8603 -9.21131 4.48401 17.3 -3.55271e-15 3e-06 21.4546 -1e-06 0.003093 0.103456 1.85782 -10.5485 7.14891 -15.4921 174.262 43.5 -2.7e-05 4e-06 -13.1182 11.4236 3.51229 42.3723 0 1e-05 83.2163 7.1313 -2.82422 17.3 -6e-06 1.7e-05 21.4546 -1.9e-05 -0.003116 6.90197 -2.60373 -3e-06 7.32312 -0.827403 -0.529462 12.5881 1e-05 8e-06 4.64731 -1.66546 -0.915261 12.3432 -1.8e-05 -5e-06 4.3581 -1.65105 -0.799218 25.8329 2.3e-05 7e-06 3.32101 -1.64236 -8.65787 11.7666 -8e-06 -6e-06 -31.1769 -5.43552 10.8559 19.7459 -1.48035 6.0001 -177.311 3.90066 -92.2712 11.2841 1.8e-05 -2e-05 28.3292 -18.5689 18.8732 33 -1.3e-05 1.9e-05 -32.7737 -3.40694 -17.6789 25.2 3.2e-05 1.1e-05 15.5885 28.1741 -7.0914 19.7461 -1.48036 -6.00008 -179.198 5.40376 91.3559 11.2841 0 -1e-06 -6.66559 6.94156 -14.854 33.0001 1.6e-05 -1e-06 -18.6932 -1.40045 14.224 25.1998 0.000123 0.000432 8.04423 -13.5848 2.45904 
88.5554 89.8171 -90.4915 -12.0116 -83.7098 -100.377 0.103456 1.85784 10.5485 11.0817 4.656 -178.092 43.5 -4.2e-05 1e-05 -8.36442 -8.37489 -2.56613 42.3722 1.9e-05 0 78.8726 -9.19921 4.43674 17.3 0 3e-06 21.4546 -1e-06 0.003093 0.103456 1.85782 -10.5485 7.10768 -15.5005 174.246 43.5 -2.7e-05 4e-06 -13.1354 11.4542 3.5142 42.3723 0 1e-05 83.2399 7.12933 -2.85332 17.3 -6e-06 1.7e-05 21.4546 -1.9e-05 -0.003116 6.90197 -2.60373 -3e-06 7.33147 -0.835874 -0.51633 12.5881 1e-05 8e-06 4.66452 -1.68039 -0.887713 12.3432 -1.8e-05 -5e-06 4.37548 -1.66398 -0.770771 25.8329 2.3e-05 7e-06 3.34874 -1.66487 -8.65357 11.7666 -8e-06 -6e-06 -31.087 -5.42666 10.825 19.7459 -1.48035 6.0001 -177.341 3.91021 -92.3165 11.2841 1.8e-05 -2e-05 28.3988 -18.6504 18.9849 33 -1.3e-05 1.9e-05 -32.8024 -3.50622 -17.63 25.2 3.2e-05 1.1e-05 15.6171 28.1138 -7.06804 19.7461 -1.48036 -6.00008 -179.23 5.38917 91.3741 11.2841 0 -1e-06 -6.63473 7.01587 -14.85 33.0001 1.6e-05 -1e-06 -18.7923 -1.26131 14.231 25.1998 0.000123 0.000432 8.44222 -13.6183 2.50938 
88.5534 89.8133 -90.4921 -11.5192 -83.7533 -99.8638 0.103456 1.85784 10.5485 11.0395 4.65563 -178.116 43.5 -4.2e-05 1e-05 -8.36212 -8.35349 -2.56579 42.3722 1.9e-05 0 78.8694 -9.18355 4.40365 17.3 7.10543e-15 3e-06 21.4546 -1e-06 0.003093 0.103456 1.85782 -10.5485 7.05202 -15.4799 174.217 43.5 -2.7e-05 4e-06 -13.1932 11.4921 3.5271 42.3723 -1.42109e-14 1e-05 83.2872 7.14044 -2.90442 17.3 -6e-06 1.7e-05 21.4546 -1.9e-05 -0.003116 6.90197 -2.60373 -3e-06 7.33997 -0.836191 -0.511413 12.5881 1e-05 8e-06 4.68136 -1.67605 -0.87799 12.3432 -1.8e-05 -5e-06 4.39218 -1.6627 -0.761329 25.8329 2.3e-05 7e-06 3.39077 -1.63111 -8.66772 11.7666 -8e-06 -6e-06 -30.9319 -5.36282 10.8286 19.7459 -1.48035 6.0001 -177.45 3.90471 -92.3877 11.2841 1.8e-05 -2e-05 28.3757 -18.7933 19.0903 33 -1.3e-05 1.9e-05 -32.7622 -3.53004 -17.6762 25.2 3.2e-05 1.1e-05 15.6159 28.0848 -7.05975 19.7461 -1.48036 -6.00008 -179.224 5.41221 91.3201 11.2841 0 -1e-06 -6.6535 6.89274 -14.7935 33.0001 1.6e-05 -1e-06 -18.7826 -1.36846 14.2266 25.1998 0.000123 0.000432 8.43922 -13.7142 2.5712 
88.5532 89.8101 -90.4922 -11.0516 -83.7968 -99.3837 0.103456 1.85784 10.5485 11.0279 4.65169 -178.118 43.5 -4.2e-05 1e-05 -8.30346 -8.33491 -2.56656 42.3722 1.9e-05 1.42109e-14 78.8272 -9.17568 4.35142 17.3 -7.10543e-15 3e-06 21.4546 -1e-06 0.003093 0.103456 1.85782 -10.5485 6.99532 -15.4772 174.213 43.5 -2.7e-05 4e-06 -13.2492 11.5317 3.52749 42.3723 0 1e-05 83.3153 7.10379 -2.97824 17.3 -6e-06 1.7e-05 21.4546 -1.9e-05 -0.003116 6.90197 -2.60373 -3e-06 7.35592 -0.833638 -0.510912 12.5881 1e-05 8e-06 4.71331 -1.67461 -0.874179 12.3432 -1.8e-05 -5e-06 4.42411 -1.65663 -0.757561 25.8329 2.3e-05 7e-06 3.41839 -1.59771 -8.67512 11.7666 -8e-06 -6e-06 -30.8268 -5.31762 10.8394 19.7459 -1.48035 6.0001 -177.528 3.88342 -92.424 11.2841 1.8e-05 -2e-05 28.2921 -18.8551 19.087 33 -1.3e-05 1.9e-05 -32.783 -3.56396 -17.6705 25.2 3.2e-05 1.1e-05 15.544 28.063 -7.03825 19.7461 -1.48036 -6.00008 -179.237 5.46257 91.2934 11.2841 0 -1e-06 -6.68241 6.77788 -14.8118 33.0001 1.6e-05 -1e-06 -18.7668 -1.48329 14.1832 25.1998 0.000123 0.000432 8.19964 -13.6756 2.46639 
88.5551 89.8078 -90.493 -10.6687 -83.8414 -99.0006 0.103456 1.85784 10.5485 11.0082 4.64538 -178.115 43.5 -4.2e-05 1e-05 -8.26424 -8.32674 -2.57119 42.3722 1.9e-05 0 78.8408 -9.14491 4.31822 17.3 3.55271e-15 3e-06 21.4546 -1e-06 0.003093 0.103456 1.85782 -10.5485 6.93563 -15.4807 174.208 43.5 -2.7e-05 4e-06 -13.3104 11.5545 3.5308 42.3723 0 1e-05 83.3612 7.08912 -2.99991 17.3 -6e-06 1.7e-05 21.4546 -1.9e-05 -0.003116 6.90197 -2.60373 -3e-06 7.37058 -0.830632 -0.512423 12.5881 1e-05 8e-06 4.74252 -1.66859 -0.877187 12.3432 -1.8e-05 -5e-06 4.45326 -1.65036 -0.760877 25.8329 2.3e-05 7e-06 3.43226 -1.58147 -8.67028 11.7666 -8e-06 -6e-06 -30.7516 -5.29668 10.851 19.7459 -1.48035 6.0001 -177.596 3.82109 -92.4275 11.2841 1.8e-05 -2e-05 28.1206 -18.8495 18.9729 33 -1.3e-05 1.9e-05 -32.8927 -3.53402 -17.6341 25.2 3.2e-05 1.1e-05 15.484 28.0862 -7.00386 19.7461 -1.48036 -6.00008 -179.244 5.53375 91.2716 11.2841 -2.84217e-14 -1e-06 -6.72083 6.65993 -14.8454 33.0001 1.6e-05 -1e-06 -18.749 -1.58533 14.1453 25.1998 0.000123 0.000432 8.04594 -13.6924 2.44959 
88.5566 89.8056 -90.4916 -10.187 -83.8768 -98.5197 0.103456 1.85784 10.5485 10.9958 4.61868 -178.085 43.5 -4.2e-05 1e-05 -8.25662 -8.32118 -2.58886 42.3722 1.9e-05 1.42109e-14 78.8566 -9.18222 4.2821 17.3 7.10543e-15 3e-06 21.4546 -1e-06 0.003093 0.103456 1.85782 -10.5485 6.89184 -15.5225 174.213 43.5 -2.7e-05 4e-06 -13.3834 11.5722 3.53549 42.3723 0 1e-05 83.3961 7.06364 -3.01934 17.3 -6e-06 1.7e-05 21.4546 -1.9e-05 -0.003116 6.90197 -2.60373 -3e-06 7.39269 -0.820179 -0.514758 12.5881 1e-05 8e-06 4.78647 -1.64793 -0.885738 12.3432 -1.8e-05 -5e-06 4.49687 -1.62961 -0.770637 25.8329 2.3e-05 7e-06 3.43874 -1.57574 -8.6552 11.7666 -8e-06 -6e-06 -30.646 -5.30925 10.8779 19.7459 -1.48035 6.0001 -177.693 3.79479 -92.4331 11.2841 1.8e-05 -2e-05 27.955 -18.8981 18.8405 33 -1.3e-05 1.9e-05 -33.0584 -3.54711 -17.619 25.2 3.2e-05 1.1e-05 15.4152 28.0848 -7.03892 19.7461 -1.48036 -6.00008 -179.184 5.56676 91.2091 11.2841 0 -1e-06 -6.7053 6.47333 -14.9127 33.0001 1.6e-05 -1e-06 -18.7644 -1.67298 14.1382 25.1998 0.000123 0.000432 8.10238 -13.7945 2.52487 
